<svg width="45" height="46" viewBox="0 0 45 46" fill="none" xmlns="http://www.w3.org/2000/svg">
<g clip-path="url(#clip0_167_5479)">
<path d="M17.0194 11.6843H17.6206V19.7238C17.6206 20.1 17.9258 20.4051 18.3019 20.4051H29.4162C29.7924 20.4051 30.0976 20.1 30.0976 19.7238V11.6843H30.6987C30.9926 11.6843 31.2535 11.4973 31.3456 11.2188C31.4391 10.9404 31.3428 10.6324 31.108 10.4566L24.2975 5.36038C24.0542 5.17897 23.7237 5.17756 23.4819 5.35897L16.6123 10.4552C16.3761 10.631 16.2798 10.9376 16.3719 11.2174C16.4647 11.4958 16.7255 11.6843 17.0194 11.6843ZM24.8691 19.0404H22.9728V16.6617C22.9728 16.1414 23.3996 15.7167 23.9248 15.7167C24.1744 15.7167 24.4093 15.8144 24.5935 15.9965C24.7679 16.1681 24.8698 16.41 24.8698 16.661L24.8691 19.0404ZM23.8876 6.75678L28.6498 10.3202H19.0838L23.8876 6.75678ZM18.9847 11.6843H28.7335V19.0411H26.2325V16.6624C26.2325 16.0458 25.9815 15.4481 25.5498 15.0283C25.1145 14.5931 24.538 14.354 23.9234 14.354C22.6466 14.354 21.608 15.3898 21.608 16.6624V19.0411H18.9847V11.6843ZM4.63952 24.1577H17.0194C17.3956 24.1577 17.7022 23.8526 17.7022 23.4764C17.7022 23.1002 17.3956 22.7937 17.0194 22.7937H4.63952C4.26335 22.7937 3.95679 23.1002 3.95679 23.4764C3.95679 23.8526 4.26335 24.1577 4.63952 24.1577ZM4.63952 28.9094H17.0194C17.3956 28.9094 17.7022 28.6043 17.7022 28.2267C17.7022 27.8505 17.3956 27.5454 17.0194 27.5454H4.63952C4.26335 27.5454 3.95679 27.8505 3.95679 28.2267C3.95679 28.6043 4.26335 28.9094 4.63952 28.9094ZM17.7022 32.9784C17.7022 32.6023 17.3956 32.2971 17.0194 32.2971H4.63952C4.26335 32.2971 3.95679 32.6023 3.95679 32.9784C3.95679 33.356 4.26335 33.6612 4.63952 33.6612H17.0194C17.3956 33.6605 17.7022 33.356 17.7022 32.9784Z" fill="#B98D44"/>
<path d="M44.1323 12.3559L43.1831 11.4066C42.068 10.2929 40.2975 10.2479 39.2365 11.3075L35.9156 14.6284V4.02945C35.9156 2.49804 34.6704 1.25422 33.1404 1.25422H13.365C13.3509 1.25422 13.3404 1.25984 13.3263 1.26125C13.263 1.26406 13.2012 1.27601 13.1407 1.29851C13.1217 1.30554 13.102 1.30976 13.0845 1.3189C13.0106 1.35195 12.9403 1.39414 12.8827 1.4532L0.198984 14.1369C0.139922 14.1945 0.0991406 14.2627 0.0660938 14.3359C0.05625 14.3562 0.0513281 14.3787 0.0428906 14.4005C0.0239062 14.4582 0.0126563 14.5159 0.0084375 14.5749C0.00703125 14.5897 0 14.6037 0 14.6185V42.9235C0 44.4549 1.24453 45.6987 2.77523 45.6987H33.1404C34.6704 45.6987 35.9156 44.4542 35.9156 42.9235V24.6191L42.4645 18.0702C42.4659 18.0702 42.4659 18.0687 42.4659 18.0687L44.2308 16.3025C45.2925 15.2422 45.2489 13.471 44.1323 12.3559ZM7.50516 8.75867L12.6823 3.58156V12.5246C12.6823 13.303 12.0495 13.9365 11.2704 13.9365H2.32805L7.50516 8.75867ZM34.5523 42.9235C34.5523 43.7019 33.9195 44.3354 33.1404 44.3354H2.77523C1.99688 44.3354 1.36336 43.7026 1.36336 42.9235V15.2998H11.2704C12.8004 15.2998 14.0456 14.0553 14.0456 12.5246V2.61617H33.1397C33.918 2.61617 34.5516 3.25039 34.5516 4.02945V15.9924L19.1559 31.3895C19.0751 31.4689 19.016 31.5695 18.983 31.6791L17.3032 37.3892C17.2329 37.6283 17.299 37.8877 17.4748 38.0635C17.6041 38.1943 17.7785 38.2639 17.9571 38.2639C18.0218 38.2639 18.0865 38.2541 18.1491 38.2351L23.8605 36.5553C23.9702 36.5237 24.0694 36.4646 24.1502 36.3837L34.5516 25.9824L34.5523 42.9235ZM20.0834 32.7739L22.7651 35.457L18.9654 36.575L20.0834 32.7739ZM34.7583 23.8484C34.7541 23.8512 34.7513 23.8555 34.747 23.8583L23.921 34.685L20.8547 31.6173L37.9519 14.5201L39.0037 15.5719L35.4741 19.1002C35.2076 19.3667 35.2076 19.7991 35.4741 20.0642C35.607 20.1971 35.782 20.2646 35.9564 20.2646C36.1308 20.2646 36.3052 20.1971 36.4388 20.0642L39.9684 16.5359L41.0189 17.5878L34.7583 23.8484ZM43.2668 15.3385L41.9829 16.6238L38.9166 13.5561L40.2005 12.2722C40.7292 11.7434 41.6355 11.7877 42.2191 12.3713L43.1684 13.3205C43.752 13.9034 43.797 14.8098 43.2668 15.3385Z" fill="#B98D44"/>
</g>
<defs>
<clipPath id="clip0_167_5479">
<rect width="45" height="45" fill="white" transform="translate(0 0.97646)"/>
</clipPath>
</defs>
</svg>
