<svg width="98" height="117" viewBox="0 0 98 117" fill="none" xmlns="http://www.w3.org/2000/svg">
<circle cx="1.5" cy="115.5" r="1.5" fill="#162834"/>
<circle cx="1.5" cy="96.5" r="1.5" fill="#162834"/>
<circle cx="1.5" cy="77.5" r="1.5" fill="#162834"/>
<circle cx="1.5" cy="58.5" r="1.5" fill="#162834"/>
<circle cx="1.5" cy="39.5" r="1.5" fill="#162834"/>
<circle cx="1.5" cy="20.5" r="1.5" fill="#162834"/>
<circle cx="1.5" cy="1.5" r="1.5" fill="#162834"/>
<circle cx="39.5" cy="115.5" r="1.5" fill="#162834"/>
<circle cx="39.5" cy="96.5" r="1.5" fill="#162834"/>
<circle cx="39.5" cy="77.5" r="1.5" fill="#162834"/>
<circle cx="39.5" cy="58.5" r="1.5" fill="#162834"/>
<circle cx="39.5" cy="39.5" r="1.5" fill="#162834"/>
<circle cx="39.5" cy="20.5" r="1.5" fill="#162834"/>
<circle cx="39.5" cy="1.5" r="1.5" fill="#162834"/>
<circle cx="77.5" cy="115.5" r="1.5" fill="#162834"/>
<circle cx="77.5" cy="96.5" r="1.5" fill="#162834"/>
<circle cx="77.5" cy="77.5" r="1.5" fill="#162834"/>
<circle cx="77.5" cy="58.5" r="1.5" fill="#162834"/>
<circle cx="77.5" cy="39.5" r="1.5" fill="#162834"/>
<circle cx="77.5" cy="20.5" r="1.5" fill="#162834"/>
<circle cx="77.5" cy="1.5" r="1.5" fill="#162834"/>
<circle cx="20.5" cy="115.5" r="1.5" fill="#162834"/>
<circle cx="20.5" cy="96.5" r="1.5" fill="#162834"/>
<circle cx="20.5" cy="77.5" r="1.5" fill="#162834"/>
<circle cx="20.5" cy="58.5" r="1.5" fill="#162834"/>
<circle cx="20.5" cy="39.5" r="1.5" fill="#162834"/>
<circle cx="20.5" cy="20.5" r="1.5" fill="#162834"/>
<circle cx="20.5" cy="1.5" r="1.5" fill="#162834"/>
<circle cx="58.5" cy="115.5" r="1.5" fill="#162834"/>
<circle cx="58.5" cy="96.5" r="1.5" fill="#162834"/>
<circle cx="58.5" cy="77.5" r="1.5" fill="#162834"/>
<circle cx="58.5" cy="58.5" r="1.5" fill="#162834"/>
<circle cx="58.5" cy="39.5" r="1.5" fill="#162834"/>
<circle cx="58.5" cy="20.5" r="1.5" fill="#162834"/>
<circle cx="58.5" cy="1.5" r="1.5" fill="#162834"/>
<circle cx="96.5" cy="115.5" r="1.5" fill="#162834"/>
<circle cx="96.5" cy="96.5" r="1.5" fill="#162834"/>
<circle cx="96.5" cy="77.5" r="1.5" fill="#162834"/>
<circle cx="96.5" cy="58.5" r="1.5" fill="#162834"/>
<circle cx="96.5" cy="39.5" r="1.5" fill="#162834"/>
<circle cx="96.5" cy="20.5" r="1.5" fill="#162834"/>
<circle cx="96.5" cy="1.5" r="1.5" fill="#162834"/>
</svg>
