<svg width="72" height="72" viewBox="0 0 72 72" fill="none" xmlns="http://www.w3.org/2000/svg">
<path d="M36 64.3084C35.6077 64.3084 35.213 64.2141 34.8505 64.0279C30.7979 61.9141 26.2948 60.8102 21.7241 60.8102C17.1534 60.8102 12.6503 61.9141 8.59779 64.0279C8.21908 64.2241 7.79628 64.3197 7.36998 64.3054C6.94368 64.2912 6.52822 64.1675 6.16348 63.9464C5.79875 63.7252 5.497 63.414 5.28721 63.0427C5.07742 62.6713 4.96664 62.2522 4.96552 61.8257V14.6533C4.9655 14.2528 5.06235 13.8583 5.24781 13.5033C5.43328 13.1484 5.70185 12.8436 6.03062 12.6149C15.4179 6.08279 28.0303 6.08279 37.4201 12.6149C38.0855 13.0792 38.4828 13.8414 38.4828 14.6533V61.8257C38.4828 62.4841 38.2212 63.1156 37.7556 63.5813C37.29 64.0469 36.6585 64.3084 36 64.3084ZM21.7241 55.8447C25.7214 55.8447 29.7211 56.5622 33.5172 57.9973V15.994C29.9655 13.8263 25.8851 12.6795 21.7241 12.6795C17.5632 12.6795 13.4828 13.8263 9.93103 15.994V57.9973C13.6998 56.5735 17.6954 55.8442 21.7241 55.8447Z" fill="#B98D44"/>
<path d="M64.5517 64.3084C64.1594 64.3084 63.7647 64.2141 63.4022 64.0279C59.3496 61.9141 54.8465 60.8102 50.2758 60.8102C45.7051 60.8102 41.202 61.9141 37.1495 64.0279C36.7708 64.2241 36.348 64.3197 35.9217 64.3054C35.4954 64.2912 35.0799 64.1675 34.7152 63.9464C34.3504 63.7252 34.0487 63.414 33.8389 63.0427C33.6291 62.6713 33.5183 62.2522 33.5172 61.8257V14.6533C33.5172 14.2528 33.614 13.8583 33.7995 13.5033C33.985 13.1484 34.2535 12.8436 34.5823 12.6149C43.9696 6.08279 56.582 6.08279 65.9718 12.6149C66.6372 13.0792 67.0345 13.8414 67.0345 14.6533V61.8257C67.0345 62.4841 66.7729 63.1156 66.3073 63.5813C65.8417 64.0469 65.2102 64.3084 64.5517 64.3084ZM50.2758 55.8447C54.2731 55.8447 58.2728 56.5622 62.0689 57.9973V15.994C58.5172 13.8263 54.4368 12.6795 50.2758 12.6795C46.1149 12.6795 42.0345 13.8263 38.4827 15.994V57.9973C42.2515 56.5735 46.2471 55.8442 50.2758 55.8447Z" fill="#B98D44"/>
</svg>
