<svg width="72" height="72" viewBox="0 0 72 72" fill="none" xmlns="http://www.w3.org/2000/svg">
<path d="M71.982 50.5395C71.9758 50.4632 71.9615 50.3878 71.9392 50.3145C71.9206 50.2368 71.8934 50.1613 71.8583 50.0895C71.8447 50.0648 71.8447 50.0355 71.829 50.013L60.75 32.3033V20.25H66.375C66.6734 20.25 66.9595 20.1315 67.1705 19.9205C67.3815 19.7095 67.5 19.4234 67.5 19.125V18.7785C67.4928 17.3667 66.9578 16.0086 66.0002 14.9711C65.0427 13.9336 63.7317 13.2917 62.325 13.1715L39.375 11.3355V7.44528C39.9478 6.79577 40.321 5.99477 40.4499 5.1384C40.5788 4.28202 40.4578 3.40666 40.1015 2.61734C39.7452 1.82802 39.1687 1.15828 38.4411 0.688492C37.7136 0.2187 36.866 -0.031189 36 -0.031189C35.134 -0.031189 34.2864 0.2187 33.5589 0.688492C32.8313 1.15828 32.2548 1.82802 31.8985 2.61734C31.5422 3.40666 31.4212 4.28202 31.5501 5.1384C31.679 5.99477 32.0522 6.79577 32.625 7.44528V11.2388L9.65475 13.1603C8.25203 13.2852 6.94635 13.9288 5.99303 14.9654C5.03971 16.0019 4.50733 17.3568 4.5 18.765V19.125C4.5 19.4234 4.61853 19.7095 4.8295 19.9205C5.04048 20.1315 5.32663 20.25 5.625 20.25H11.25V32.3033L0.171 50.0288C0.15525 50.0535 0.15525 50.0805 0.14175 50.1053C0.106606 50.1771 0.0794433 50.2525 0.06075 50.3303C0.0385156 50.4035 0.024184 50.479 0.018 50.5553C0.018 50.5845 0 50.6115 0 50.6408C0 53.9228 1.30379 57.0705 3.62455 59.3912C5.94532 61.712 9.09295 63.0158 12.375 63.0158C15.6571 63.0158 18.8047 61.712 21.1254 59.3912C23.4462 57.0705 24.75 53.9228 24.75 50.6408C24.75 50.6093 24.7342 50.5845 24.732 50.5553C24.7258 50.479 24.7115 50.4035 24.6892 50.3303C24.6706 50.2525 24.6434 50.1771 24.6082 50.1053C24.5948 50.0805 24.5947 50.0513 24.579 50.0288L13.5 32.3033V20.25H32.625V43.6275C32.2723 43.9412 31.9898 44.3259 31.796 44.7562C31.6021 45.1866 31.5013 45.653 31.5 46.125V63.2025L25.5645 64.3883C24.0671 64.692 22.7204 65.5034 21.7521 66.6853C20.7838 67.8672 20.2532 69.3471 20.25 70.875C20.25 71.1734 20.3685 71.4595 20.5795 71.6705C20.7905 71.8815 21.0766 72 21.375 72H50.625C50.9234 72 51.2095 71.8815 51.4205 71.6705C51.6315 71.4595 51.75 71.1734 51.75 70.875C51.7467 69.3468 51.2158 67.8666 50.247 66.6846C49.2783 65.5027 47.9311 64.6915 46.4332 64.3883L40.5 63.225V46.125C40.4987 45.653 40.3979 45.1866 40.204 44.7562C40.0102 44.3259 39.7277 43.9412 39.375 43.6275V20.25H58.5V32.3033L47.421 50.031C47.4053 50.0558 47.4053 50.0828 47.3918 50.1075C47.3566 50.1793 47.3294 50.2548 47.3108 50.3325C47.2885 50.4058 47.2742 50.4812 47.268 50.5575C47.268 50.5868 47.25 50.6138 47.25 50.643C47.25 53.9251 48.5538 57.0727 50.8746 59.3935C53.1953 61.7142 56.3429 63.018 59.625 63.018C62.9071 63.018 66.0547 61.7142 68.3755 59.3935C70.6962 57.0727 72 53.9251 72 50.643C72 50.5935 71.9843 50.5688 71.982 50.5395ZM36 2.25003C36.445 2.25003 36.88 2.38199 37.25 2.62922C37.62 2.87646 37.9084 3.22786 38.0787 3.63899C38.249 4.05013 38.2936 4.50253 38.2068 4.93898C38.1199 5.37544 37.9057 5.77635 37.591 6.09102C37.2763 6.40569 36.8754 6.61998 36.439 6.7068C36.0025 6.79361 35.5501 6.74906 35.139 6.57876C34.7278 6.40846 34.3764 6.12007 34.1292 5.75006C33.882 5.38005 33.75 4.94504 33.75 4.50003C33.75 3.90329 33.9871 3.331 34.409 2.90904C34.831 2.48708 35.4033 2.25003 36 2.25003ZM37.125 8.84028V42.75H34.875V8.84028C35.6099 9.05341 36.3901 9.05341 37.125 8.84028ZM33.75 46.125C33.75 45.8267 33.8685 45.5405 34.0795 45.3295C34.2905 45.1186 34.5766 45 34.875 45H37.125C37.4234 45 37.7095 45.1186 37.9205 45.3295C38.1315 45.5405 38.25 45.8267 38.25 46.125V63H33.75V46.125ZM12.375 60.75C9.88512 60.747 7.48336 59.8281 5.62736 58.1684C3.77135 56.5087 2.59084 54.2241 2.31075 51.75H22.4392C22.1592 54.2241 20.9786 56.5087 19.1226 58.1684C17.2666 59.8281 14.8649 60.747 12.375 60.75ZM21.6 49.5H3.15L12.375 34.7468L21.6 49.5ZM6.83775 18C7.00327 17.3065 7.38251 16.6825 7.9219 16.2162C8.46129 15.7499 9.13357 15.4648 9.84375 15.4013L32.625 13.5V18H6.83775ZM45.9877 66.6C46.7859 66.7608 47.5236 67.1407 48.1181 67.697C48.7126 68.2534 49.1404 68.9642 49.3537 69.75H22.6462C22.8593 68.9652 23.2862 68.2551 23.8794 67.6989C24.4726 67.1426 25.2087 66.7622 26.0055 66.6L32.625 65.25H39.2648L45.9877 66.6ZM39.375 18V13.5945L62.1427 15.417C62.8527 15.4771 63.5257 15.7588 64.0668 16.2223C64.6078 16.6858 64.9895 17.3077 65.1577 18H39.375ZM59.625 34.7468L68.85 49.5H50.4L59.625 34.7468ZM59.625 60.75C57.1351 60.747 54.7334 59.8281 52.8774 58.1684C51.0214 56.5087 49.8408 54.2241 49.5608 51.75H69.687C69.407 54.2237 68.2268 56.508 66.3712 58.1677C64.5157 59.8273 62.1145 60.7465 59.625 60.75Z" fill="#B98D44"/>
</svg>
