<svg width="45" height="46" viewBox="0 0 45 46" fill="none" xmlns="http://www.w3.org/2000/svg">
<path fill-rule="evenodd" clip-rule="evenodd" d="M14.0625 10.4146H5.625C4.50563 10.4146 3.43266 10.8589 2.64234 11.6506C2.25032 12.0421 1.93935 12.5071 1.72725 13.0189C1.51514 13.5307 1.40606 14.0793 1.40625 14.6333V37.1333C1.40625 38.2527 1.85063 39.3256 2.64234 40.116C3.03382 40.508 3.49876 40.8189 4.01057 41.031C4.52237 41.2432 5.07098 41.3522 5.625 41.352H39.375C40.4944 41.352 41.5673 40.9077 42.3577 40.116C42.7497 39.7245 43.0606 39.2595 43.2727 38.7477C43.4849 38.2359 43.5939 37.6873 43.5937 37.1333V14.6333C43.5937 13.5139 43.1494 12.441 42.3577 11.6506C41.9662 11.2586 41.5012 10.9477 40.9894 10.7355C40.4776 10.5234 39.929 10.4144 39.375 10.4146H30.9375V9.0083C30.9375 7.88893 30.4931 6.81596 29.7014 6.02564C29.3099 5.63362 28.845 5.32266 28.3332 5.11055C27.8214 4.89844 27.2728 4.78936 26.7187 4.78955H18.2812C17.1619 4.78955 16.0889 5.23393 15.2986 6.02564C14.9066 6.41712 14.5956 6.88206 14.3835 7.39387C14.1714 7.90567 14.0623 8.45429 14.0625 9.0083V10.4146ZM40.7812 23.5292L23.6587 28.4216C22.9012 28.6367 22.0988 28.6367 21.3412 28.4216L4.21875 23.5292V37.1333C4.21819 37.3181 4.25419 37.5012 4.32466 37.6721C4.39513 37.843 4.4987 37.9982 4.62939 38.1289C4.76008 38.2596 4.91533 38.3632 5.08619 38.4336C5.25706 38.5041 5.44017 38.5401 5.625 38.5395H39.375C39.5598 38.5401 39.7429 38.5041 39.9138 38.4336C40.0847 38.3632 40.2399 38.2596 40.3706 38.1289C40.5013 37.9982 40.6049 37.843 40.6753 37.6721C40.7458 37.5012 40.7818 37.3181 40.7812 37.1333V23.5292ZM39.375 13.227H5.625C5.44017 13.2265 5.25706 13.2625 5.08619 13.333C4.91533 13.4034 4.76008 13.507 4.62939 13.6377C4.4987 13.7684 4.39513 13.9236 4.32466 14.0945C4.25419 14.2654 4.21819 14.4485 4.21875 14.6333V20.6042L22.1133 25.7174C22.3664 25.7891 22.6336 25.7891 22.8867 25.716L40.7812 20.6042V14.6333C40.7818 14.4485 40.7458 14.2654 40.6753 14.0945C40.6049 13.9236 40.5013 13.7684 40.3706 13.6377C40.2399 13.507 40.0847 13.4034 39.9138 13.333C39.7429 13.2625 39.5598 13.2265 39.375 13.227ZM28.125 10.4146H16.875V9.0083C16.8744 8.82347 16.9104 8.64036 16.9809 8.46949C17.0514 8.29863 17.1549 8.14338 17.2856 8.01269C17.4163 7.882 17.5716 7.77843 17.7424 7.70796C17.9133 7.63749 18.0964 7.60149 18.2812 7.60205H26.7187C26.9036 7.60149 27.0867 7.63749 27.2576 7.70796C27.4284 7.77843 27.5837 7.882 27.7144 8.01269C27.8451 8.14338 27.9486 8.29863 28.0191 8.46949C28.0896 8.64036 28.1256 8.82347 28.125 9.0083V10.4146Z" fill="#B98D44"/>
<path d="M22.5 23.0708C23.2767 23.0708 23.9062 22.4412 23.9062 21.6646C23.9062 20.8879 23.2767 20.2583 22.5 20.2583C21.7233 20.2583 21.0938 20.8879 21.0938 21.6646C21.0938 22.4412 21.7233 23.0708 22.5 23.0708Z" fill="#B98D44"/>
</svg>
