<svg width="56" height="56" viewBox="0 0 56 56" fill="none" xmlns="http://www.w3.org/2000/svg">
<path d="M36.75 45.5C41.5825 45.5 45.5 41.5825 45.5 36.75C45.5 31.9175 41.5825 28 36.75 28C31.9175 28 28 31.9175 28 36.75C28 41.5825 31.9175 45.5 36.75 45.5Z" stroke="#B98D44" stroke-width="3.5" stroke-miterlimit="10" stroke-linecap="round" stroke-linejoin="round"/>
<path d="M42.0001 23.7772V21C42.0001 20.5359 41.8157 20.0908 41.4875 19.7626C41.1594 19.4344 40.7142 19.25 40.2501 19.25H33.2501C32.786 19.25 32.3409 19.4344 32.0127 19.7626C31.6845 20.0908 31.5001 20.5359 31.5001 21V23.7772C28.6232 24.9405 26.2143 27.0265 24.6517 29.7075C23.0892 32.3886 22.4615 35.5127 22.8674 38.5893C23.6689 44.8718 28.8261 49.9468 35.1191 50.6573C38.4868 51.0561 41.8848 50.2186 44.6815 48.3005C47.4782 46.3824 49.4833 43.5142 50.3244 40.2289C51.1654 36.9436 50.785 33.4647 49.2539 30.4387C47.7228 27.4128 45.1452 25.0457 42.0001 23.7772Z" stroke="#B98D44" stroke-width="3.5" stroke-miterlimit="10" stroke-linecap="round" stroke-linejoin="round"/>
<path d="M24.4041 43.8217C23.0947 44.7757 21.546 45.3473 19.9308 45.473C18.3156 45.5987 16.6972 45.2735 15.2559 44.5336C13.8146 43.7937 12.6071 42.6682 11.7677 41.2825C10.9284 39.8968 10.4903 38.3052 10.5022 36.6852C10.5141 35.0651 10.9755 33.4802 11.8351 32.1069C12.6947 30.7336 13.9186 29.626 15.3706 28.9073C16.8226 28.1887 18.4456 27.8873 20.0588 28.0367C21.672 28.1861 23.212 28.7804 24.5074 29.7535" stroke="#B98D44" stroke-width="3.5" stroke-miterlimit="10" stroke-linecap="round" stroke-linejoin="round"/>
<path d="M27.8811 25.7355C26.8511 24.928 25.713 24.2689 24.5001 23.7772V21C24.5001 20.5359 24.3157 20.0908 23.9875 19.7626C23.6594 19.4344 23.2142 19.25 22.7501 19.25H15.7501C15.286 19.25 14.8409 19.4344 14.5127 19.7626C14.1845 20.0908 14.0001 20.5359 14.0001 21V23.7772C11.1232 24.9405 8.7143 27.0265 7.15173 29.7075C5.58916 32.3886 4.96151 35.5127 5.36736 38.5893C6.16886 44.8718 11.3261 49.9468 17.6191 50.6573C21.2958 51.0904 24.9941 50.0469 27.9021 47.7557M19.2501 15.75V19.25M36.7501 15.75V19.25M23.6251 5.25H25.3751M30.6251 5.25H32.3751M19.2501 10.5V8.75M36.7501 8.75V10.5" stroke="#B98D44" stroke-width="3.5" stroke-miterlimit="10" stroke-linecap="round" stroke-linejoin="round"/>
</svg>
