<svg width="56" height="56" viewBox="0 0 56 56" fill="none" xmlns="http://www.w3.org/2000/svg">
<path d="M11.872 34.5385H14.9766C16.1648 34.5385 17.3043 34.0665 18.1445 33.2263C18.9846 32.3861 19.4566 31.2466 19.4566 30.0585V25.4553C19.4566 24.2671 18.9846 23.1276 18.1445 22.2874C17.3043 21.4472 16.1648 20.9753 14.9766 20.9753H11.872C10.6838 20.9753 9.54431 21.4472 8.70414 22.2874C7.86398 23.1276 7.39198 24.2671 7.39198 25.4553V30.0585C7.39198 31.2466 7.86398 32.3861 8.70414 33.2263C9.54431 34.0665 10.6838 34.5385 11.872 34.5385ZM9.63198 25.4553C9.63198 24.8612 9.86798 24.2914 10.2881 23.8713C10.7081 23.4513 11.2779 23.2153 11.872 23.2153H14.9766C15.5707 23.2153 16.1405 23.4513 16.5605 23.8713C16.9806 24.2914 17.2166 24.8612 17.2166 25.4553V30.0585C17.2166 30.6525 16.9806 31.2223 16.5605 31.6424C16.1405 32.0625 15.5707 32.2985 14.9766 32.2985H11.872C11.2779 32.2985 10.7081 32.0625 10.2881 31.6424C9.86798 31.2223 9.63198 30.6525 9.63198 30.0585V25.4553ZM20.8544 40.069C20.6167 40.2472 20.318 40.3238 20.024 40.2818C19.7299 40.2397 19.4646 40.0826 19.2864 39.845C18.8965 39.3221 18.3894 38.8979 17.8059 38.6066C17.2224 38.3152 16.5786 38.1647 15.9264 38.1673H10.9222C9.80788 38.169 8.73971 38.6126 7.95196 39.4008C7.16421 40.189 6.72117 41.2574 6.71998 42.3717V44.4415C8.8701 45.1912 11.1461 45.5131 13.4198 45.389C14.8434 45.4211 16.2671 45.3327 17.6758 45.1247C17.9687 45.0748 18.2694 45.1433 18.5118 45.3151C18.7542 45.4869 18.9184 45.748 18.9683 46.0409C19.0182 46.3337 18.9497 46.6344 18.7779 46.8768C18.6061 47.1192 18.345 47.2834 18.0521 47.3333C16.5208 47.5635 14.9725 47.6625 13.4243 47.629C10.5783 47.8054 7.73096 47.3073 5.1139 46.1753C4.92415 46.0838 4.76401 45.9408 4.65188 45.7625C4.53975 45.5842 4.48017 45.3779 4.47998 45.1673V42.3717C4.48176 40.6637 5.16106 39.0261 6.36883 37.8183C7.5766 36.6106 9.21418 35.9313 10.9222 35.9295H15.9174C16.9176 35.9248 17.9048 36.155 18.7997 36.6016C19.6946 37.0483 20.472 37.6989 21.0694 38.501C21.2479 38.7384 21.3248 39.0369 21.2832 39.3309C21.2416 39.625 21.0849 39.8905 20.8477 40.069H20.8544ZM51.52 42.3717V45.1673C51.5202 45.3774 51.4613 45.5834 51.35 45.7616C51.2387 45.9399 51.0795 46.0832 50.8905 46.1753C48.2735 47.3073 45.4261 47.8054 42.5801 47.629C41.0319 47.6625 39.4837 47.5635 37.9523 47.3333C37.8073 47.3087 37.6685 47.2556 37.544 47.1773C37.4194 47.099 37.3115 46.9969 37.2265 46.8769C37.1414 46.7569 37.0808 46.6213 37.0481 46.4778C37.0155 46.3344 37.0114 46.1859 37.0361 46.0409C37.0898 45.7499 37.2549 45.4913 37.4963 45.3202C37.7376 45.1491 38.0363 45.0789 38.3286 45.1247C39.7373 45.3327 41.161 45.4211 42.5846 45.389C44.8568 45.5125 47.1313 45.1907 49.28 44.4415V42.3717C49.2782 41.2578 48.8349 40.1899 48.0472 39.4023C47.2595 38.6146 46.1917 38.1713 45.0777 38.1695H40.0825C39.4303 38.167 38.7866 38.3174 38.203 38.6088C37.6195 38.9002 37.1124 39.3244 36.7225 39.8473C36.6343 39.9649 36.5237 40.064 36.3972 40.139C36.2706 40.2139 36.1305 40.2632 35.9849 40.284C35.8393 40.3048 35.6911 40.2967 35.5486 40.2602C35.4061 40.2237 35.2722 40.1595 35.1545 40.0713C35.0369 39.983 34.9377 39.8724 34.8628 39.7459C34.7879 39.6193 34.7386 39.4792 34.7178 39.3336C34.697 39.188 34.7051 39.0398 34.7416 38.8973C34.7781 38.7548 34.8423 38.6209 34.9305 38.5033C35.528 37.7011 36.3054 37.0505 37.2003 36.6039C38.0951 36.1572 39.0824 35.927 40.0825 35.9317H45.0777C46.7854 35.9335 48.4226 36.6125 49.6303 37.8198C50.838 39.0271 51.5176 40.6641 51.52 42.3717ZM26.9069 27.6213C25.8969 27.6213 24.9283 28.0225 24.2142 28.7367C23.5001 29.4508 23.0989 30.4194 23.0989 31.4293V34.7647C23.0989 35.7746 23.5001 36.7432 24.2142 37.4574C24.9283 38.1715 25.8969 38.5727 26.9069 38.5727H29.0931C30.103 38.5727 31.0716 38.1715 31.7858 37.4574C32.4999 36.7432 32.9011 35.7746 32.9011 34.7647V31.4293C32.9011 30.4194 32.4999 29.4508 31.7858 28.7367C31.0716 28.0225 30.103 27.6213 29.0931 27.6213H26.9069ZM30.6611 31.4293V34.7647C30.6611 35.1806 30.4959 35.5794 30.2018 35.8734C29.9078 36.1675 29.509 36.3327 29.0931 36.3327H26.9069C26.491 36.3327 26.0922 36.1675 25.7981 35.8734C25.5041 35.5794 25.3389 35.1806 25.3389 34.7647V31.4293C25.3389 31.0135 25.5041 30.6146 25.7981 30.3206C26.0922 30.0265 26.491 29.8613 26.9069 29.8613H29.0931C29.509 29.8613 29.9078 30.0265 30.2018 30.3206C30.4959 30.6146 30.6611 31.0135 30.6611 31.4293ZM29.9197 39.8562H26.0803C24.6972 39.8568 23.371 40.4063 22.3928 41.3841C21.4146 42.3618 20.8645 43.6879 20.8633 45.0709V47.2213C20.8633 47.4317 20.9226 47.6379 21.0343 47.8161C21.146 47.9944 21.3057 48.1376 21.495 48.2293C23.5402 49.1164 25.7659 49.5079 27.991 49.3717C30.2161 49.5079 32.4419 49.1164 34.487 48.2293C34.6764 48.1376 34.836 47.9944 34.9477 47.8161C35.0595 47.6379 35.1187 47.4317 35.1187 47.2213V45.0709C35.1175 43.691 34.5699 42.3676 33.5956 41.3904C32.6213 40.4132 31.2996 39.8615 29.9197 39.8562ZM32.8966 46.4866C31.3187 47.0044 29.6581 47.2232 28 47.1317C26.3418 47.2232 24.6812 47.0044 23.1033 46.4866V45.0709C23.1045 44.282 23.4186 43.5257 23.9767 42.968C24.5348 42.4103 25.2913 42.0968 26.0803 42.0962H29.9197C30.7086 42.0968 31.4651 42.4103 32.0232 42.968C32.5813 43.5257 32.8954 44.282 32.8966 45.0709V46.4866ZM36.5433 30.0585C36.5433 31.2466 37.0153 32.3861 37.8555 33.2263C38.6957 34.0665 39.8352 34.5385 41.0233 34.5385H44.128C45.3162 34.5385 46.4557 34.0665 47.2958 33.2263C48.136 32.3861 48.608 31.2466 48.608 30.0585V25.4553C48.608 24.2671 48.136 23.1276 47.2958 22.2874C46.4557 21.4472 45.3162 20.9753 44.128 20.9753H41.0233C39.8352 20.9753 38.6957 21.4472 37.8555 22.2874C37.0153 23.1276 36.5433 24.2671 36.5433 25.4553V30.0585ZM38.7833 25.4553C38.7833 24.8612 39.0193 24.2914 39.4394 23.8713C39.8595 23.4513 40.4293 23.2153 41.0233 23.2153H44.128C44.7221 23.2153 45.2918 23.4513 45.7119 23.8713C46.132 24.2914 46.368 24.8612 46.368 25.4553V30.0585C46.368 30.6525 46.132 31.2223 45.7119 31.6424C45.2918 32.0625 44.7221 32.2985 44.128 32.2985H41.0233C40.4293 32.2985 39.8595 32.0625 39.4394 31.6424C39.0193 31.2223 38.7833 30.6525 38.7833 30.0585V25.4553ZM25.6928 21.4501C26.3896 21.8688 27.1871 22.0899 28 22.0899C28.8128 22.0899 29.6104 21.8688 30.3072 21.4501C36.0841 17.9916 36.9465 14.2485 36.9465 12.3266C36.9954 11.6208 36.9035 10.9124 36.6761 10.2425C36.4487 9.57256 36.0905 8.95451 35.6221 8.42427C35.1538 7.89403 34.5847 7.46218 33.948 7.15382C33.3113 6.84546 32.6197 6.66674 31.9133 6.62805C30.4863 6.62877 29.1036 7.12345 28 8.02805C26.8964 7.12345 25.5137 6.62877 24.0867 6.62805C23.3809 6.66677 22.6898 6.84527 22.0536 7.15321C21.4173 7.46115 20.8486 7.89239 20.3803 8.42191C19.9121 8.95142 19.5537 9.56866 19.3259 10.2378C19.0981 10.9069 19.0055 11.6147 19.0534 12.3199C19.0534 14.2485 19.9158 17.9916 25.6928 21.4501ZM24.0867 8.86805C24.6612 8.86982 25.2285 8.99586 25.7497 9.23751C26.2709 9.47917 26.7337 9.83072 27.1062 10.2681C27.2151 10.4003 27.3519 10.5069 27.5068 10.58C27.6617 10.6532 27.8309 10.6911 28.0022 10.6911C28.1735 10.6911 28.3427 10.6532 28.4977 10.58C28.6526 10.5069 28.7894 10.4003 28.8982 10.2681C29.273 9.83501 29.7357 9.48677 30.2556 9.24653C30.7755 9.00629 31.3406 8.87956 31.9133 8.87477C32.3229 8.91755 32.7201 9.0406 33.0821 9.23689C33.4442 9.43318 33.7641 9.69886 34.0235 10.0188C34.2829 10.3387 34.4767 10.7066 34.5939 11.1014C34.7111 11.4962 34.7494 11.9103 34.7065 12.3199C34.7065 14.7839 32.6905 17.4092 29.1581 19.5237C28.8068 19.7295 28.4071 19.8379 28 19.8379C27.5929 19.8379 27.1932 19.7295 26.8419 19.5237C23.3161 17.4159 21.2934 14.7839 21.2934 12.3199C21.2497 11.9097 21.2872 11.495 21.404 11.0994C21.5208 10.7038 21.7144 10.3351 21.9739 10.0145C22.2334 9.69381 22.5536 9.4275 22.9161 9.23078C23.2787 9.03406 23.6764 8.9108 24.0867 8.86805Z" fill="#B98D44"/>
</svg>
