<svg width="56" height="56" viewBox="0 0 56 56" fill="none" xmlns="http://www.w3.org/2000/svg">
<path d="M4.66739 46.6666H42.0007" stroke="#B98D44" stroke-width="3.5" stroke-linecap="round" stroke-linejoin="round"/>
<path d="M8.92563 28.3876C8.28396 27.9209 7.70063 27.3376 7.00065 25.2959C6.81079 24.7896 6.09324 22.2511 5.48399 19.9292C4.97007 17.9707 4.51213 16.183 4.72565 15.7292C4.90068 15.2626 5.13396 14.9126 5.8923 14.4459C6.35896 14.1588 8.75063 13.5709 9.2173 13.4542C9.68396 13.3376 10.3256 13.2792 10.8506 13.4542C11.8423 13.6292 13.884 16.6042 14.409 16.9542C14.6423 17.1876 15.4006 17.8664 16.2756 17.9459C16.9173 18.0042 17.559 17.8292 18.259 17.5376C18.9006 17.2702 31.559 11.1209 32.7257 10.5959C42.234 6.62925 49.1407 13.1509 50.1907 14.5509C51.2757 15.9042 51.509 16.3126 51.2174 17.4792C50.8403 18.7042 49.8174 18.9376 49.234 19.1126C48.6507 19.2876 40.6007 21.4459 37.4507 22.3209C36.7626 22.5449 36.4266 22.9949 36.3424 23.0792C35.934 23.6626 34.079 27.6293 33.554 28.5043C33.1924 29.4376 32.2007 30.6043 30.9174 31.0709C29.5757 31.5376 27.2424 32.0626 26.7174 32.2376C26.1924 32.4126 24.9674 32.7626 24.559 32.6459C24.034 32.5293 23.5324 32.0043 23.7657 31.1876C23.999 30.3709 24.4424 28.0959 24.5007 27.7459C24.559 27.3959 25.1424 25.9376 24.5007 25.8793C24.384 25.7043 23.159 26.2293 21.3506 26.6376C20.0071 27.0158 18.6002 27.3901 17.6173 27.6293C13.8256 28.7376 11.7722 29.0293 11.3173 29.0293C10.4423 29.0293 9.80063 28.9126 8.92563 28.3876Z" stroke="#B98D44" stroke-width="3.5"/>
</svg>
