<svg width="56" height="56" viewBox="0 0 56 56" fill="none" xmlns="http://www.w3.org/2000/svg">
<path d="M25.6818 49H22.4127C14.0472 49 9.86438 49 7.26552 46.3517C4.66667 43.7036 4.66667 39.4413 4.66667 30.9167C4.66667 22.3921 4.66667 18.1299 7.26552 15.4816C9.86438 12.8334 14.0472 12.8334 22.4127 12.8334H31.2858C39.6513 12.8334 43.8342 12.8334 46.4331 15.4816C48.4325 17.5192 48.8936 20.5121 49 25.6667" stroke="#B98D44" stroke-width="3.5" stroke-linecap="round" stroke-linejoin="round"/>
<path d="M40.8333 51.3334C46.6324 51.3334 51.3333 46.6324 51.3333 40.8334C51.3333 35.0343 46.6324 30.3334 40.8333 30.3334C35.0343 30.3334 30.3333 35.0343 30.3333 40.8334C30.3333 46.6324 35.0343 51.3334 40.8333 51.3334Z" stroke="#B98D44" stroke-width="3.5" stroke-linecap="round"/>
<path d="M45.5 42L44.1331 43.2929C42.5775 44.7643 41.7998 45.5 40.8333 45.5M40.8333 45.5C39.8669 45.5 39.0892 44.7643 37.5335 43.2929L36.1667 42M40.8333 45.5V36.1666" stroke="#B98D44" stroke-width="3.5" stroke-linecap="round" stroke-linejoin="round"/>
<path d="M37.3333 12.8333L37.1016 12.1122C35.9464 8.5187 35.3689 6.72199 33.9941 5.6943C32.6191 4.66663 30.793 4.66663 27.1404 4.66663H26.5263C22.8738 4.66663 21.0475 4.66663 19.6726 5.6943C18.2977 6.72199 17.7202 8.5187 16.5651 12.1122L16.3333 12.8333" stroke="#B98D44" stroke-width="3.5" stroke-linecap="round" stroke-linejoin="round"/>
</svg>
