<svg width="56" height="56" viewBox="0 0 56 56" fill="none" xmlns="http://www.w3.org/2000/svg">
<path d="M46.3337 20.8706C46.3098 20.6601 46.2637 20.4527 46.1962 20.2518V20.0456C46.086 19.81 45.939 19.5934 45.7607 19.4039L32.0107 5.65393C31.8213 5.47568 31.6047 5.3287 31.3691 5.21851C31.3007 5.2088 31.2312 5.2088 31.1628 5.21851C30.93 5.085 30.6729 4.9993 30.4066 4.96643H16.542C14.7186 4.96643 12.9699 5.69076 11.6806 6.98007C10.3913 8.26938 9.66699 10.0181 9.66699 11.8414V43.9247C9.66699 45.7481 10.3913 47.4968 11.6806 48.7861C12.9699 50.0754 14.7186 50.7997 16.542 50.7997H39.4587C41.282 50.7997 43.0307 50.0754 44.32 48.7861C45.6093 47.4968 46.3337 45.7481 46.3337 43.9247V21.0081C46.3337 21.0081 46.3337 21.0081 46.3337 20.8706ZM32.5837 12.781L38.5191 18.7164H34.8753C34.2675 18.7164 33.6846 18.475 33.2549 18.0452C32.8251 17.6154 32.5837 17.0325 32.5837 16.4248V12.781ZM41.7503 43.9247C41.7503 44.5325 41.5089 45.1154 41.0791 45.5452C40.6493 45.975 40.0664 46.2164 39.4587 46.2164H16.542C15.9342 46.2164 15.3513 45.975 14.9215 45.5452C14.4918 45.1154 14.2503 44.5325 14.2503 43.9247V11.8414C14.2503 11.2336 14.4918 10.6507 14.9215 10.221C15.3513 9.7912 15.9342 9.54976 16.542 9.54976H28.0003V16.4248C28.0003 18.2481 28.7247 19.9968 30.014 21.2861C31.3033 22.5754 33.052 23.2998 34.8753 23.2998H41.7503V43.9247ZM33.2482 28.5477L25.7087 36.1102L22.7524 33.131C22.3209 32.6995 21.7356 32.457 21.1253 32.457C20.5151 32.457 19.9298 32.6995 19.4982 33.131C19.0667 33.5625 18.8243 34.1478 18.8243 34.7581C18.8243 35.3684 19.0667 35.9536 19.4982 36.3852L24.0816 40.9685C24.2946 41.1833 24.5481 41.3538 24.8273 41.4701C25.1066 41.5865 25.4061 41.6464 25.7087 41.6464C26.0112 41.6464 26.3107 41.5865 26.59 41.4701C26.8692 41.3538 27.1227 41.1833 27.3357 40.9685L36.5024 31.8018C36.9339 31.3703 37.1764 30.785 37.1764 30.1747C37.1764 29.5645 36.9339 28.9792 36.5024 28.5477C36.0709 28.1161 35.4856 27.8737 34.8753 27.8737C34.2651 27.8737 33.6798 28.1161 33.2482 28.5477Z" fill="#B98D44"/>
</svg>
