<svg width="39" height="49" viewBox="0 0 39 49" fill="none" xmlns="http://www.w3.org/2000/svg">
<path d="M28.0944 11.1331C28.0944 13.4123 27.189 15.5981 25.5773 17.2097C23.9657 18.8214 21.7798 19.7268 19.5006 19.7268C17.2214 19.7268 15.0356 18.8214 13.4239 17.2097C11.8123 15.5981 10.9069 13.4123 10.9069 11.1331C10.9069 8.85385 11.8123 6.668 13.4239 5.05636C15.0356 3.44472 17.2214 2.53931 19.5006 2.53931C21.7798 2.53931 23.9657 3.44472 25.5773 5.05636C27.189 6.668 28.0944 8.85385 28.0944 11.1331ZM2.31543 43.4868C2.38907 38.9776 4.23204 34.678 7.44688 31.5152C10.6617 28.3525 14.9908 26.58 19.5006 26.58C24.0104 26.58 28.3395 28.3525 31.5544 31.5152C34.7692 34.678 36.6122 38.9776 36.6858 43.4868C31.2944 45.959 25.4318 47.2348 19.5006 47.2268C13.3681 47.2268 7.5473 45.8885 2.31543 43.4868Z" stroke="#B98D44" stroke-width="3.5" stroke-linecap="round" stroke-linejoin="round"/>
</svg>
