<svg width="72" height="58" viewBox="0 0 72 58" fill="none" xmlns="http://www.w3.org/2000/svg">
<path d="M71.6911 18.6657C71.4933 18.468 71.225 18.3569 70.9453 18.3569C70.6656 18.3569 70.3973 18.468 70.1995 18.6657L64.1022 24.763L47.768 8.08436L53.6931 2.1593C53.7913 2.06143 53.8693 1.94513 53.9226 1.81708C53.9759 1.68902 54.0034 1.55172 54.0035 1.41302C54.0037 1.27433 53.9764 1.13697 53.9234 1.0088C53.8704 0.880638 53.7927 0.764186 53.6946 0.666114C53.5965 0.568042 53.4801 0.490274 53.3519 0.437263C53.2237 0.384252 53.0864 0.357037 52.9477 0.357178C52.809 0.357319 52.6717 0.384812 52.5436 0.438084C52.4156 0.491355 52.2993 0.569359 52.2014 0.667631L44.147 8.72198C43.6183 9.25062 43.2083 9.88589 42.9443 10.5855C42.6804 11.285 42.5686 12.0328 42.6164 12.779H41.2045C40.1525 12.7794 39.1124 13.0015 38.152 13.4307C37.1916 13.86 36.3324 14.4868 35.6305 15.2704L35.4255 15.4994C33.4857 14.5276 31.36 13.983 29.1918 13.9023C29.4507 12.9979 29.4631 12.0407 29.2277 11.1299C28.9923 10.2191 28.5176 9.38773 27.853 8.72198L19.7986 0.667631C19.6007 0.470022 19.3325 0.359064 19.0529 0.359149C18.7733 0.359234 18.5051 0.470355 18.3074 0.668084C18.1096 0.865813 17.9985 1.13397 17.9984 1.4136C17.9984 1.69323 18.1093 1.96145 18.3069 2.1593L24.32 8.17236L7.98587 24.8511L1.80052 18.6657C1.60267 18.4681 1.33445 18.3571 1.05481 18.3572C0.775183 18.3573 0.50703 18.4684 0.309301 18.6662C0.111572 18.8639 0.000451291 19.132 0.00036626 19.4117C0.000281229 19.6913 0.111239 19.9595 0.308847 20.1574L7.06326 26.9118C7.15239 27.0649 7.27978 27.1923 7.43296 27.2815L8.3632 28.2117C9.02916 28.876 9.86046 29.3504 10.7711 29.5858C11.6818 29.8211 12.6389 29.809 13.5433 29.5507C13.5698 30.2681 13.6474 30.9827 13.7754 31.689C13.2843 31.9146 12.8373 32.2259 12.4555 32.6083L10.1401 34.9237C9.50094 35.5629 9.06566 36.3772 8.88933 37.2638C8.71299 38.1503 8.8035 39.0693 9.14942 39.9044C9.49534 40.7395 10.0811 41.4533 10.8327 41.9555C11.5843 42.4577 12.4679 42.7258 13.3719 42.7258C13.5141 42.7258 13.6553 42.7186 13.7953 42.7058C13.7361 43.3388 13.8097 43.9771 14.0115 44.5799C14.2132 45.1827 14.5385 45.7368 14.9666 46.2067C15.3948 46.6765 15.9163 47.0518 16.4978 47.3086C17.0793 47.5653 17.7081 47.6978 18.3437 47.6976C18.486 47.6976 18.6271 47.6905 18.7671 47.6777C18.708 48.3106 18.7817 48.9489 18.9834 49.5517C19.1851 50.1545 19.5104 50.7086 19.9386 51.1785C20.3667 51.6483 20.8882 52.0236 21.4697 52.2804C22.0512 52.5371 22.6799 52.6697 23.3156 52.6695C23.4579 52.6695 23.599 52.6623 23.739 52.6496C23.6528 53.585 23.857 54.5243 24.3237 55.3396C24.7905 56.1548 25.4971 56.8064 26.3475 57.2057C27.1978 57.605 28.1505 57.7325 29.076 57.5709C30.0014 57.4093 30.8545 56.9665 31.5192 56.3027L33.0421 54.7798L34.565 56.3028C35.2043 56.9418 36.0186 57.3769 36.9051 57.5532C37.7916 57.7294 38.7104 57.6389 39.5454 57.293C40.3805 56.9472 41.0942 56.3615 41.5965 55.6101C42.0987 54.8586 42.3669 53.9751 42.3671 53.0713C42.3671 52.9297 42.36 52.7891 42.3474 52.6498C42.4866 52.6624 42.627 52.6695 42.7685 52.6695C43.9806 52.6694 45.1431 52.1878 46.0001 51.3307C46.8572 50.4736 47.3388 49.3111 47.3388 48.099C47.3388 47.9575 47.3318 47.817 47.3191 47.6778C47.4584 47.6904 47.5987 47.6975 47.7403 47.6975C48.9524 47.6975 50.1149 47.2159 50.972 46.3589C51.8291 45.5018 52.3106 44.3393 52.3107 43.1272C52.3107 42.9857 52.3036 42.8452 52.291 42.7061C52.4302 42.7187 52.5706 42.7258 52.7121 42.7258C53.6161 42.7258 54.4997 42.4578 55.2513 41.9556C56.0029 41.4534 56.5887 40.7396 56.9347 39.9044C57.2806 39.0693 57.3711 38.1504 57.1947 37.2638C57.0184 36.3772 56.5831 35.5629 55.9439 34.9237L54.6655 33.6454C56.1524 32.5143 57.4218 31.1229 58.412 29.5387C59.3218 29.8065 60.287 29.8246 61.2062 29.5911C62.1255 29.3577 62.965 28.8812 63.6368 28.2117L71.6911 20.1574C71.8889 19.9596 72 19.6913 72 19.4115C72 19.1318 71.8889 18.8635 71.6911 18.6657ZM9.85487 26.7201L9.47756 26.3427L25.8117 9.66406L26.3613 10.2137C26.9538 10.8075 27.2866 11.6121 27.2866 12.4509C27.2866 13.2898 26.9538 14.0944 26.3613 14.6882L14.3295 26.7201C13.7357 27.3126 12.931 27.6454 12.0922 27.6454C11.2533 27.6454 10.4487 27.3126 9.85487 26.7201ZM13.3719 40.6164C12.8852 40.6163 12.4094 40.472 12.0048 40.2016C11.6001 39.9311 11.2847 39.5468 11.0985 39.0972C10.9122 38.6475 10.8635 38.1527 10.9584 37.6754C11.0533 37.198 11.2877 36.7595 11.6318 36.4154L13.9471 34.1C14.1756 33.8711 14.4469 33.6894 14.7455 33.5654C15.0442 33.4414 15.3644 33.3775 15.6878 33.3773C16.0112 33.3771 16.3315 33.4407 16.6303 33.5644C16.9291 33.688 17.2006 33.8694 17.4293 34.098C17.658 34.3267 17.8393 34.5982 17.963 34.897C18.0867 35.1958 18.1503 35.5161 18.1501 35.8395C18.1499 36.1629 18.086 36.4831 17.962 36.7818C17.838 37.0804 17.6564 37.3517 17.4275 37.5802L15.112 39.8956C14.884 40.1248 14.6128 40.3065 14.3141 40.4303C14.0154 40.554 13.6952 40.6173 13.3719 40.6164ZM18.3437 45.5883C17.857 45.5882 17.3813 45.4438 16.9766 45.1734C16.5719 44.903 16.2565 44.5186 16.0703 44.069C15.884 43.6193 15.8352 43.1245 15.9302 42.6472C16.0251 42.1698 16.2594 41.7313 16.6035 41.3871L18.919 39.0719C19.3808 38.6117 20.0063 38.3536 20.6582 38.3541C21.3101 38.3547 21.9352 38.6139 22.3962 39.0749C22.8571 39.5358 23.1164 40.1609 23.117 40.8128C23.1176 41.4647 22.8595 42.0902 22.3993 42.552L20.0838 44.8674C19.8558 45.0967 19.5847 45.2784 19.286 45.4021C18.9873 45.5259 18.667 45.5891 18.3437 45.5883ZM23.3156 50.5601C22.9923 50.561 22.672 50.4977 22.3733 50.374C22.0747 50.2503 21.8035 50.0685 21.5755 49.8393C21.1147 49.3774 20.8559 48.7515 20.8558 48.0991C20.8558 47.4466 21.1146 46.8208 21.5754 46.3589L23.8909 44.0436C24.1193 43.8146 24.3906 43.6329 24.6893 43.5089C24.988 43.3849 25.3082 43.3209 25.6316 43.3207C25.955 43.3206 26.2753 43.3841 26.5741 43.5078C26.873 43.6315 27.1445 43.8129 27.3732 44.0416C27.6019 44.2703 27.7832 44.5418 27.9069 44.8407C28.0306 45.1395 28.0941 45.4598 28.0939 45.7832C28.0937 46.1066 28.0297 46.4268 27.9057 46.7255C27.7816 47.0242 27.5999 47.2955 27.3709 47.5239L25.0557 49.8393C24.8277 50.0685 24.5565 50.2503 24.2578 50.374C23.9592 50.4977 23.6389 50.561 23.3156 50.5601ZM32.3428 52.4958L30.0277 54.811C29.566 55.2714 28.9404 55.5298 28.2883 55.5293C27.6362 55.5289 27.011 55.2697 26.5499 54.8086C26.0888 54.3475 25.8296 53.7223 25.8291 53.0702C25.8286 52.4182 26.0869 51.7926 26.5474 51.3308L28.8626 49.0156C29.0909 48.7864 29.3623 48.6044 29.661 48.4802C29.9598 48.3559 30.2801 48.2918 30.6036 48.2915C30.9272 48.2912 31.2476 48.3547 31.5466 48.4784C31.8456 48.6021 32.1173 48.7835 32.3461 49.0123C32.5749 49.2411 32.7563 49.5127 32.88 49.8117C33.0037 50.1107 33.0672 50.4311 33.0668 50.7547C33.0665 51.0783 33.0024 51.3986 32.8782 51.6973C32.7539 51.9961 32.572 52.2674 32.3428 52.4958ZM55.1732 38.1555C55.1732 38.6422 55.0289 39.118 54.7584 39.5227C54.488 39.9274 54.1037 40.2429 53.654 40.4291C53.2043 40.6154 52.7094 40.6641 52.232 40.5691C51.7547 40.4741 51.3162 40.2396 50.972 39.8954L43.4148 32.3383C43.3169 32.2403 43.2006 32.1625 43.0726 32.1094C42.9446 32.0563 42.8074 32.029 42.6688 32.0289C42.5303 32.0289 42.393 32.0562 42.265 32.1092C42.137 32.1622 42.0207 32.2399 41.9227 32.3379C41.8247 32.4359 41.747 32.5522 41.694 32.6802C41.641 32.8082 41.6137 32.9455 41.6137 33.084C41.6138 33.2226 41.6411 33.3598 41.6942 33.4878C41.7473 33.6158 41.8251 33.7321 41.9231 33.83L49.4804 41.3871C49.7096 41.6154 49.8915 41.8867 50.0158 42.1855C50.14 42.4843 50.2041 42.8046 50.2044 43.1281C50.2047 43.4517 50.1412 43.7721 50.0175 44.0711C49.8939 44.3701 49.7124 44.6418 49.4837 44.8706C49.2549 45.0993 48.9832 45.2808 48.6842 45.4045C48.3852 45.5281 48.0648 45.5916 47.7412 45.5913C47.4177 45.591 47.0973 45.5269 46.7986 45.4027C46.4998 45.2784 46.2285 45.0965 46.0002 44.8673L38.4431 37.31C38.2453 37.1122 37.977 37.0011 37.6973 37.0011C37.4175 37.0011 37.1492 37.1122 36.9514 37.31C36.7536 37.5079 36.6425 37.7761 36.6425 38.0559C36.6425 38.3356 36.7536 38.6039 36.9514 38.8017L44.5085 46.3589C44.7374 46.5873 44.9191 46.8586 45.0431 47.1573C45.1671 47.456 45.231 47.7761 45.2312 48.0995C45.2313 48.4229 45.1678 48.7432 45.0441 49.042C44.9205 49.3408 44.7391 49.6123 44.5104 49.8409C44.2818 50.0696 44.0103 50.251 43.7115 50.3746C43.4127 50.4983 43.0924 50.5619 42.7691 50.5617C42.4457 50.5616 42.1255 50.4977 41.8268 50.3737C41.5282 50.2497 41.2569 50.068 41.0284 49.8391L33.4712 42.2819C33.3733 42.1837 33.2571 42.1058 33.1291 42.0527C33.0011 41.9995 32.8638 41.972 32.7252 41.9719C32.5866 41.9718 32.4493 41.999 32.3212 42.0519C32.1931 42.1049 32.0767 42.1826 31.9787 42.2806C31.8806 42.3786 31.8028 42.4949 31.7498 42.623C31.6967 42.7511 31.6694 42.8883 31.6695 43.027C31.6695 43.1656 31.6969 43.3028 31.75 43.4309C31.8031 43.5589 31.8809 43.6752 31.979 43.7732L39.5362 51.3304C39.7648 51.5589 39.9461 51.8301 40.0698 52.1287C40.1935 52.4272 40.2572 52.7472 40.2573 53.0703C40.2573 53.3935 40.1937 53.7135 40.0701 54.0121C39.9465 54.3107 39.7653 54.582 39.5368 54.8105C39.3084 55.0391 39.0371 55.2204 38.7386 55.3441C38.44 55.4678 38.1201 55.5315 37.7969 55.5316C37.4737 55.5317 37.1537 55.4681 36.8552 55.3444C36.5566 55.2208 36.2853 55.0396 36.0567 54.8112L34.4574 53.2118C34.8975 52.5209 35.1439 51.7244 35.1707 50.9056C35.1975 50.0868 35.0038 49.2759 34.6097 48.5576C34.2157 47.8394 33.6359 47.2402 32.931 46.8229C32.226 46.4055 31.4219 46.1853 30.6027 46.1852C30.4612 46.1852 30.3208 46.1923 30.1816 46.2049C30.1942 46.0658 30.2013 45.9253 30.2013 45.7838C30.2012 44.5717 29.7196 43.4093 28.8626 42.5522C28.0055 41.6951 26.8431 41.2135 25.631 41.2134C25.4887 41.2134 25.3475 41.2205 25.2076 41.2333C25.2702 40.5648 25.1847 39.8908 24.9569 39.2592C24.7292 38.6276 24.3649 38.0541 23.89 37.5795C23.4152 37.1049 22.8414 36.7409 22.2097 36.5134C21.578 36.286 20.904 36.2008 20.2355 36.2638C20.2941 35.6439 20.2252 35.0187 20.033 34.4265C19.8408 33.8343 19.5294 33.2878 19.118 32.8205C18.7066 32.3532 18.2039 31.9751 17.6408 31.7094C17.0777 31.4437 16.4662 31.2962 15.844 31.2758C15.6734 30.316 15.6111 29.3402 15.6583 28.3665C15.7132 28.316 15.7679 28.265 15.8211 28.2117L27.8529 16.1799C27.9063 16.1266 27.9573 16.0719 28.0079 16.0169C28.2142 16.0072 28.423 16.0006 28.6354 16.0006C30.4703 16.0015 32.2844 16.3891 33.9595 17.138L27.2898 24.5928C26.7316 25.2172 26.4335 26.0314 26.4566 26.8686C26.4798 27.7058 26.8225 28.5023 27.4145 29.0948C28.5377 30.2154 30.0597 30.8447 31.6463 30.8447C33.233 30.8447 34.7549 30.2153 35.8782 29.0946L41.5041 23.4674L44.7154 26.6785C47.2394 29.2022 49.7631 31.726 52.2865 34.25L52.2895 34.2526L54.4524 36.4154C54.6816 36.6433 54.8633 36.9145 54.9871 37.2132C55.1108 37.5119 55.1741 37.8322 55.1732 38.1555ZM55.5129 29.9454C54.8187 30.768 54.0287 31.5046 53.1597 32.1398C50.8422 29.8215 48.5246 27.5038 46.2068 25.1868L42.2498 21.2299C42.052 21.0321 41.7837 20.921 41.504 20.9211C41.2242 20.9211 40.956 21.0322 40.7582 21.2301L34.3867 27.6031C33.6593 28.3287 32.6738 28.7363 31.6463 28.7363C30.6189 28.7363 29.6334 28.3287 28.906 27.6031C28.6951 27.392 28.573 27.1082 28.5648 26.8099C28.5567 26.5117 28.6629 26.2216 28.8619 25.9992L37.2023 16.6772C37.7063 16.1146 38.3232 15.6645 39.0128 15.3563C39.7024 15.0481 40.4492 14.8886 41.2045 14.8883H43.1995C43.4475 15.3648 43.767 15.8004 44.147 16.1799L56.1789 28.2117C56.296 28.3288 56.4178 28.4384 56.5428 28.5422C56.2302 29.0317 55.8862 29.5004 55.5129 29.9454ZM62.1451 26.7201C61.5513 27.3126 60.7467 27.6454 59.9078 27.6454C59.0689 27.6454 58.2643 27.3126 57.6705 26.7201L45.6387 14.6882C45.0462 14.0944 44.7134 13.2898 44.7134 12.4509C44.7134 11.6121 45.0462 10.8075 45.6387 10.2137L46.2763 9.57607L62.6105 26.2547L62.1451 26.7201Z" fill="#B98D44"/>
</svg>
