<svg width="48" height="62" viewBox="0 0 48 62" fill="none" xmlns="http://www.w3.org/2000/svg">
<path d="M29.6893 24.8391L20.5486 33.9795L16.8104 30.2383C16.2274 29.6668 15.2941 29.6668 14.7109 30.2383C14.1193 30.8182 14.1097 31.7678 14.6895 32.3594L19.4883 37.1611C19.7695 37.4426 20.1509 37.6006 20.5488 37.6006C20.9465 37.6006 21.3279 37.4426 21.6092 37.1611L31.8318 26.9385C32.4115 26.3469 32.402 25.3972 31.8104 24.8174C31.2188 24.2377 30.2692 24.2473 29.6893 24.8391ZM47.9683 6.26025C47.7986 5.4491 47.0035 4.92908 46.1924 5.09863C38.7847 6.6629 31.0602 5.08325 24.8613 0.736328C24.3446 0.373047 23.6554 0.373047 23.1387 0.736328C16.94 5.08344 9.21533 6.66327 1.80762 5.09863C1.70691 5.07758 1.60437 5.06696 1.50146 5.06696C0.67273 5.06641 0.0005493 5.73767 0 6.56641V30.6221C0.0049437 39.4307 4.24567 47.6998 11.3965 52.8438L23.127 61.2549C23.3813 61.438 23.6867 61.5365 24 61.5361C24.3133 61.5365 24.6187 61.4382 24.873 61.2551L36.6035 52.8438C43.7543 47.6998 47.9951 39.4307 48 30.6221V6.56641C48 6.4635 47.9894 6.36096 47.9683 6.26025ZM45 30.6221C44.9967 38.4639 41.2225 45.8259 34.8574 50.4062L24 58.1904L13.1426 50.4062C6.77747 45.8257 3.0033 38.4639 3 30.6221V8.35938C10.3253 9.45361 17.7975 7.82233 24 3.77441C30.2031 7.82123 37.6749 9.45251 45 8.35938V30.6221Z" fill="#B98D44"/>
</svg>
