<svg width="55" height="56" viewBox="0 0 55 56" fill="none" xmlns="http://www.w3.org/2000/svg">
<path d="M39.0936 35.952C40.1656 35.2199 41.423 34.8063 42.7203 34.759C44.0176 34.7118 45.3017 35.0327 46.4242 35.6848C47.5467 36.3369 48.4616 37.2935 49.0631 38.4439C49.6646 39.5943 49.9281 40.8914 49.8232 42.1853C47.0736 43.1463 44.1531 43.5203 41.2501 43.283C41.2411 40.6857 40.4932 38.1423 39.0936 35.9543C37.8513 34.0059 36.1376 32.4023 34.1111 31.2919C32.0847 30.1815 29.8108 29.6002 27.5001 29.6018C25.1897 29.6006 22.9164 30.1821 20.8903 31.2925C18.8642 32.4028 17.1509 34.0062 15.9088 35.9543M41.2478 43.2808L41.2501 43.3518C41.2501 43.8674 41.2226 44.3762 41.1653 44.878C37.0067 47.2639 32.2944 48.5157 27.5001 48.508C22.5272 48.508 17.859 47.188 13.8349 44.878C13.776 44.3477 13.7477 43.8144 13.7501 43.2808M13.7501 43.2808C10.848 43.5266 7.92905 43.154 5.18156 42.1876C5.07694 40.8941 5.34059 39.5974 5.942 38.4474C6.54341 37.2974 7.45803 36.3411 8.5801 35.6891C9.70217 35.0371 10.9859 34.716 12.2828 34.7629C13.5797 34.8099 14.8368 35.2229 15.9088 35.9543M13.7501 43.2808C13.7583 40.6837 14.5101 38.1425 15.9088 35.9543M34.3751 15.8518C34.3751 17.6752 33.6507 19.4239 32.3614 20.7132C31.0721 22.0025 29.3234 22.7268 27.5001 22.7268C25.6767 22.7268 23.928 22.0025 22.6387 20.7132C21.3494 19.4239 20.6251 17.6752 20.6251 15.8518C20.6251 14.0284 21.3494 12.2798 22.6387 10.9904C23.928 9.70113 25.6767 8.97681 27.5001 8.97681C29.3234 8.97681 31.0721 9.70113 32.3614 10.9904C33.6507 12.2798 34.3751 14.0284 34.3751 15.8518ZM48.1251 22.7268C48.1251 23.4039 47.9917 24.0744 47.7326 24.7C47.4734 25.3256 47.0936 25.894 46.6148 26.3728C46.136 26.8516 45.5676 27.2314 44.942 27.4906C44.3164 27.7497 43.6459 27.883 42.9688 27.883C42.2917 27.883 41.6212 27.7497 40.9956 27.4906C40.37 27.2314 39.8016 26.8516 39.3228 26.3728C38.844 25.894 38.4642 25.3256 38.2051 24.7C37.9459 24.0744 37.8126 23.4039 37.8126 22.7268C37.8126 21.3593 38.3558 20.0478 39.3228 19.0808C40.2898 18.1138 41.6013 17.5706 42.9688 17.5706C44.3363 17.5706 45.6478 18.1138 46.6148 19.0808C47.5818 20.0478 48.1251 21.3593 48.1251 22.7268ZM17.1876 22.7268C17.1876 23.4039 17.0542 24.0744 16.7951 24.7C16.536 25.3256 16.1562 25.894 15.6774 26.3728C15.1986 26.8516 14.6301 27.2314 14.0046 27.4906C13.379 27.7497 12.7085 27.883 12.0313 27.883C11.3542 27.883 10.6837 27.7497 10.0581 27.4906C9.43255 27.2314 8.86413 26.8516 8.38533 26.3728C7.90652 25.894 7.52672 25.3256 7.26759 24.7C7.00847 24.0744 6.8751 23.4039 6.8751 22.7268C6.8751 21.3593 7.41834 20.0478 8.38533 19.0808C9.35231 18.1138 10.6638 17.5706 12.0313 17.5706C13.3989 17.5706 14.7104 18.1138 15.6774 19.0808C16.6443 20.0478 17.1876 21.3593 17.1876 22.7268Z" stroke="#B98D44" stroke-width="3.5" stroke-linecap="round" stroke-linejoin="round"/>
</svg>
